<?xml version="1.0" standalone="no"?>
<!DOCTYPE svg PUBLIC "-//W3C//DTD SVG 20010904//EN"
 "http://www.w3.org/TR/2001/REC-SVG-20010904/DTD/svg10.dtd">
<svg version="1.0" xmlns="http://www.w3.org/2000/svg"
 width="505.000000pt" height="494.000000pt" viewBox="0 0 505.000000 494.000000"
 preserveAspectRatio="xMidYMid meet">

<g transform="translate(0.000000,494.000000) scale(0.100000,-0.100000)"
fill="#000000" stroke="none">
<path d="M2280 4882 c-6 -12 -9 -13 -10 -4 0 16 -55 12 -245 -19 -172 -28
-394 -101 -590 -194 -62 -30 -71 -38 -82 -72 -9 -29 -9 -39 0 -45 7 -5 3 -8
-10 -8 -13 0 -23 -4 -23 -10 0 -5 -7 -10 -15 -10 -20 0 -19 3 10 46 14 20 23
39 20 42 -3 3 -23 -9 -44 -26 -22 -18 -45 -32 -52 -32 -8 0 -8 -4 1 -15 10
-13 9 -15 -9 -15 -12 0 -19 5 -16 10 3 6 1 10 -4 10 -10 0 -15 -14 -12 -32 0
-5 -12 -8 -28 -8 -20 0 -41 -11 -68 -37 -21 -20 -43 -37 -49 -37 -19 -1 -96
-75 -89 -86 4 -7 15 -3 32 10 14 11 30 17 36 13 6 -4 2 -13 -11 -24 -30 -24
-28 -27 18 -22 40 4 41 4 34 -24 -3 -15 -13 -34 -22 -40 -12 -10 -13 -17 -4
-38 6 -14 16 -25 22 -25 12 0 48 76 53 112 4 34 12 42 33 34 13 -5 15 -9 6
-18 -7 -7 -12 -20 -12 -30 0 -10 -6 -18 -12 -18 -9 0 -9 -3 1 -9 12 -8 12 -12
2 -25 -8 -9 -10 -16 -5 -16 5 0 1 -5 -9 -11 -14 -8 -16 -14 -6 -25 9 -11 8
-14 -5 -14 -19 0 -31 -23 -21 -40 15 -24 113 61 107 93 -3 13 4 17 30 18 31 2
31 2 5 6 -38 6 -29 27 14 34 20 3 46 12 58 21 13 9 30 14 37 11 8 -3 35 9 61
25 94 60 355 183 450 212 54 17 111 37 126 45 16 8 38 15 50 15 39 0 67 12 67
27 0 12 3 13 14 4 10 -9 30 -9 77 -1 35 6 83 14 106 17 31 4 44 11 49 26 5 14
8 16 14 7 6 -10 64 -14 237 -17 125 -1 246 -5 268 -8 87 -10 326 -66 435 -100
63 -20 134 -42 158 -49 24 -7 47 -17 50 -22 14 -18 64 -38 93 -36 31 2 82 -24
74 -38 -7 -11 9 -21 38 -25 53 -9 62 -13 59 -28 -3 -17 23 -37 128 -100 96
-59 395 -338 449 -421 9 -13 34 -47 56 -75 31 -38 45 -49 60 -44 15 4 17 2 9
-6 -12 -13 13 -71 55 -129 11 -17 21 -33 21 -37 0 -4 15 -30 34 -58 19 -29 44
-77 56 -107 11 -30 27 -68 35 -85 35 -79 65 -159 95 -262 19 -63 38 -109 43
-106 6 4 7 -4 3 -20 -3 -15 1 -66 9 -114 30 -171 40 -374 26 -541 -7 -85 -11
-156 -8 -158 2 -3 10 37 17 88 16 119 21 403 9 538 -21 244 -104 571 -185 732
-19 37 -34 73 -34 79 0 6 -24 53 -52 105 -41 72 -57 93 -70 90 -19 -4 -25 10
-7 16 14 5 -39 92 -111 183 -30 39 -63 81 -72 95 -17 27 -174 187 -278 286
-80 74 -149 122 -158 108 -4 -6 -16 -13 -27 -16 -11 -3 -29 -9 -40 -14 -20 -7
-20 -7 0 15 16 19 17 24 5 31 -14 9 -7 14 13 11 21 -3 2 23 -40 54 -37 27 -55
34 -78 30 -21 -3 -24 -2 -11 3 17 8 17 9 -5 24 -59 38 -90 49 -104 38 -8 -7
-15 -7 -19 -1 -4 5 -1 13 5 16 17 11 -58 49 -236 119 -308 122 -554 168 -895
166 -157 -1 -181 -4 -190 -18z m690 -56 c0 -3 -4 -8 -10 -11 -5 -3 -10 -1 -10
4 0 6 5 11 10 11 6 0 10 -2 10 -4z m-755 -55 c3 -5 1 -12 -5 -16 -5 -3 -10 1
-10 9 0 18 6 21 15 7z m-42 -25 c18 -14 23 -36 9 -36 -5 0 -22 -11 -38 -25
-15 -13 -29 -23 -31 -21 -2 1 2 18 8 37 6 19 12 40 15 47 4 15 14 15 37 -2z
m77 10 c0 -3 -4 -8 -10 -11 -5 -3 -10 -1 -10 4 0 6 5 11 10 11 6 0 10 -2 10
-4z m320 -16 c0 -5 -4 -10 -10 -10 -5 0 -10 5 -10 10 0 6 5 10 10 10 6 0 10
-4 10 -10z m373 -19 c-3 -11 -14 -27 -24 -37 -18 -16 -19 -16 -19 4 0 11 10
28 22 36 28 20 27 20 21 -3z m-713 5 c0 -3 -4 -8 -10 -11 -5 -3 -10 -1 -10 4
0 6 5 11 10 11 6 0 10 -2 10 -4z m655 -26 c-3 -5 -11 -10 -16 -10 -6 0 -7 5
-4 10 3 6 11 10 16 10 6 0 7 -4 4 -10z m-688 -22 c-3 -8 -6 -5 -6 6 -1 11 2
17 5 13 3 -3 4 -12 1 -19z m1223 -18 c0 -5 -2 -10 -4 -10 -3 0 -8 5 -11 10 -3
6 -1 10 4 10 6 0 11 -4 11 -10z m150 -30 c0 -5 -2 -10 -4 -10 -3 0 -8 5 -11
10 -3 6 -1 10 4 10 6 0 11 -4 11 -10z m65 -70 c-3 -5 -16 -10 -28 -9 -21 0
-21 1 -2 9 28 12 37 12 30 0z m10 -40 c3 -5 2 -10 -4 -10 -5 0 -13 5 -16 10
-3 6 -2 10 4 10 5 0 13 -4 16 -10z m-2282 -42 c-11 -59 -22 -78 -43 -78 -18 0
-19 3 -10 20 15 27 -5 27 -28 -1 -33 -40 -137 -79 -145 -55 -5 13 22 56 35 56
5 0 29 16 53 36 29 25 55 38 80 40 21 2 40 6 43 9 14 14 21 2 15 -27z m-192
-21 c-16 -16 -26 0 -10 19 9 11 15 12 17 4 2 -6 -1 -17 -7 -23z m2478 17 c2
-2 -10 -4 -27 -4 -18 0 -32 5 -32 10 0 9 47 4 59 -6z m-2604 -84 c-3 -5 -11
-10 -16 -10 -6 0 -7 5 -4 10 3 6 11 10 16 10 6 0 7 -4 4 -10z m308 -17 c-3 -7
-8 -13 -12 -14 -3 0 -21 -2 -38 -3 -22 -3 -33 1 -33 9 0 16 10 20 54 20 23 0
32 -4 29 -12z m-33 -34 c0 -9 -70 -42 -77 -36 -3 3 -2 14 1 24 4 14 16 19 41
19 19 0 35 -3 35 -7z m2786 -146 c-11 -11 -19 6 -11 24 8 17 8 17 12 0 3 -10
2 -21 -1 -24z m54 -3 c0 -5 -4 -10 -10 -10 -5 0 -10 5 -10 10 0 6 5 10 10 10
6 0 10 -4 10 -10z m120 -184 c0 -8 -4 -18 -10 -21 -5 -3 -10 3 -10 14 0 12 5
21 10 21 6 0 10 -6 10 -14z m47 -48 c-3 -8 -6 -5 -6 6 -1 11 2 17 5 13 3 -3 4
-12 1 -19z"/>
<path d="M1270 4459 c0 -5 5 -7 10 -4 6 3 10 8 10 11 0 2 -4 4 -10 4 -5 0 -10
-5 -10 -11z"/>
<path d="M1230 4440 c-13 -8 -13 -10 2 -10 9 0 20 5 23 10 8 13 -5 13 -25 0z"/>
<path d="M3867 4446 c-6 -15 1 -26 15 -26 11 0 10 27 -1 34 -5 3 -11 0 -14 -8z"/>
<path d="M924 4327 c-6 -7 -33 -32 -60 -55 -47 -42 -48 -44 -30 -58 26 -18 11
-32 -16 -15 -18 11 -24 9 -54 -21 -19 -18 -46 -48 -60 -66 l-26 -34 46 7 c55
9 59 1 11 -19 -19 -8 -35 -20 -35 -25 0 -23 50 -10 94 24 74 56 93 44 26 -18
-23 -20 -36 -37 -31 -37 25 0 68 23 88 48 l23 27 0 -27 c0 -15 -6 -31 -14 -35
-7 -4 -17 -18 -20 -30 -6 -19 -3 -23 12 -23 11 0 25 6 32 14 6 8 18 12 26 9 9
-3 12 0 9 8 -3 8 6 27 20 43 14 16 26 25 26 20 1 -5 2 -13 4 -19 1 -5 3 -14 4
-20 1 -5 9 5 18 23 9 18 26 35 39 38 29 7 30 14 4 47 -22 27 -49 30 -86 10
-17 -10 -23 -9 -35 6 -22 24 -13 41 19 35 15 -2 34 0 42 6 13 9 13 12 -4 21
-11 7 -14 14 -8 18 6 4 1 25 -16 59 -27 55 -31 58 -48 39z m16 -56 c0 -11 -26
-22 -34 -14 -12 12 -5 23 14 23 11 0 20 -4 20 -9z m-50 -95 c0 -3 -4 -8 -10
-11 -5 -3 -10 -1 -10 4 0 6 5 11 10 11 6 0 10 -2 10 -4z m145 -46 c3 -5 -1
-10 -10 -10 -9 0 -13 5 -10 10 3 6 8 10 10 10 2 0 7 -4 10 -10z"/>
<path d="M2556 4331 c-3 -5 1 -14 10 -22 8 -7 20 -22 25 -33 6 -12 -5 -4 -23
17 -18 20 -39 37 -45 37 -21 0 -102 -111 -123 -168 -39 -102 -21 -202 49 -271
41 -41 45 -51 49 -102 2 -31 -1 -65 -7 -75 -10 -17 -10 -17 -11 5 0 13 -15 42
-34 65 -37 45 -176 130 -204 124 -11 -2 1 -14 40 -36 61 -35 158 -117 158
-134 0 -5 -23 12 -50 39 -53 51 -163 123 -188 123 -12 0 -14 -16 -9 -97 7
-126 18 -160 72 -226 44 -55 131 -105 161 -93 7 3 16 0 20 -5 3 -6 14 -9 24
-6 11 3 21 -2 24 -10 10 -26 7 -173 -4 -173 -5 0 -10 11 -10 24 0 32 -45 69
-114 95 -93 35 -115 33 -41 -2 39 -19 81 -47 95 -63 l25 -29 -31 28 c-30 27
-161 87 -190 87 -31 0 -2 -158 41 -220 35 -51 70 -70 130 -70 51 0 53 2 65 83
6 42 8 45 9 17 0 -19 -3 -50 -8 -68 -8 -28 -7 -32 9 -32 19 0 30 -26 30 -76 0
-31 0 -31 55 -32 l56 0 -4 74 c-2 40 -7 77 -10 81 -4 3 -7 16 -7 27 0 16 2 18
9 7 7 -10 18 -5 52 26 50 46 89 69 89 53 0 -5 -4 -10 -9 -10 -5 0 -35 -33 -66
-72 l-56 -73 58 -7 c32 -4 72 -5 88 -2 36 7 85 51 85 75 0 10 12 29 26 43 22
20 27 35 32 94 6 84 1 102 -27 95 -16 -4 -21 -15 -24 -52 l-3 -46 -2 48 c-1
26 -4 47 -7 47 -3 0 -33 -12 -68 -26 -78 -33 -142 -77 -163 -112 -8 -15 -12
-18 -7 -7 4 11 8 57 8 102 l0 82 56 -2 c47 -1 63 4 107 32 56 35 113 107 130
162 14 47 24 211 13 228 -19 30 -40 3 -44 -56 l-3 -58 -2 58 c-1 34 -6 57 -13
57 -6 0 -43 -17 -83 -37 -70 -38 -151 -109 -166 -148 -4 -11 -5 14 -3 55 5 74
6 76 49 114 61 52 77 88 78 166 1 92 -16 137 -81 218 -53 68 -75 84 -87 63z
m90 -145 c13 -28 24 -62 23 -76 0 -17 -5 -10 -13 21 -7 25 -22 62 -34 83 -12
20 -17 34 -11 30 6 -3 22 -30 35 -58z m-133 -93 c-7 -3 -14 -19 -14 -36 -1
-26 -3 -27 -6 -8 -3 12 -2 34 2 48 5 21 9 23 18 13 9 -10 9 -14 0 -17z m26
-63 c0 -9 -4 -8 -9 5 -5 11 -9 27 -9 35 0 9 4 8 9 -5 5 -11 9 -27 9 -35z m-21
-75 c0 -16 -2 -15 -8 5 -4 14 -8 34 -8 45 0 16 2 15 8 -5 4 -14 8 -34 8 -45z
m143 13 c-11 -32 -43 -71 -89 -112 -22 -19 -22 -19 -37 17 -21 51 -18 70 4 23
l18 -38 42 37 c29 26 46 52 54 82 6 25 13 40 15 34 2 -6 -1 -25 -7 -43z m-114
5 c-3 -10 -5 -4 -5 12 0 17 2 24 5 18 2 -7 2 -21 0 -30z m10 -330 c-2 -21 -4
-4 -4 37 0 41 2 58 4 38 2 -21 2 -55 0 -75z m289 24 c-19 -47 -88 -139 -117
-159 -13 -8 -35 -18 -49 -22 -14 -4 -5 4 20 18 67 36 147 153 151 218 2 22 2
22 6 2 2 -12 -3 -38 -11 -57z m-156 -29 c-30 -46 -62 -92 -71 -102 -18 -19
-18 -19 -12 2 4 17 2 21 -10 16 -20 -7 -30 27 -24 77 3 31 4 30 5 -8 1 -24 5
-43 8 -43 18 0 46 26 84 77 24 32 48 61 54 65 25 17 15 -7 -34 -84z m-338 36
c24 -26 56 -66 72 -91 31 -46 44 -44 47 7 1 23 2 23 9 -5 11 -43 12 -73 2 -57
-7 9 -13 8 -27 -8 -19 -21 -19 -20 -57 37 -21 32 -50 75 -64 96 -52 79 -44 88
18 21z m115 -26 c-3 -8 -6 -5 -6 6 -1 11 2 17 5 13 3 -3 4 -12 1 -19z m-63
-406 c63 -65 37 -71 -32 -7 -34 31 -62 61 -62 66 0 16 53 -18 94 -59z m54 43
c-3 -3 -9 2 -12 12 -6 14 -5 15 5 6 7 -7 10 -15 7 -18z m99 -62 c-2 -16 -4 -5
-4 22 0 28 2 40 4 28 2 -13 2 -35 0 -50z m259 18 c-18 -35 -74 -101 -85 -101
-5 0 9 18 30 41 20 22 43 54 49 70 7 16 15 28 17 25 2 -2 -3 -18 -11 -35z"/>
<path d="M2647 3614 c-16 -19 -27 -39 -25 -45 2 -6 16 8 31 32 34 51 31 57 -6
13z"/>
<path d="M2340 3666 c0 -14 95 -144 99 -135 2 6 -13 35 -34 64 -36 52 -65 84
-65 71z"/>
<path d="M2374 3241 c17 -17 34 -31 39 -31 14 0 -23 39 -48 52 -14 8 -12 2 9
-21z"/>
<path d="M1016 4285 c-3 -8 -2 -15 3 -15 5 0 14 7 21 15 10 12 10 15 -3 15 -8
0 -17 -7 -21 -15z"/>
<path d="M2905 4183 c-85 -9 -110 -75 -51 -132 30 -29 42 -34 101 -37 59 -4
68 -2 90 21 34 33 32 68 -7 109 -35 37 -66 46 -133 39z m77 -30 c15 -16 29
-39 32 -53 7 -28 -12 -71 -33 -78 -8 -3 -4 8 9 26 21 28 22 34 10 62 -7 17
-24 40 -38 50 -13 11 -20 20 -15 20 5 0 21 -12 35 -27z"/>
<path d="M2195 4156 c35 -35 41 -69 18 -108 -10 -17 -25 -34 -33 -36 -8 -3 -2
9 13 27 15 18 27 42 27 53 0 24 -52 78 -75 78 -29 0 -74 -30 -90 -60 -14 -27
-14 -33 -1 -59 18 -34 34 -41 104 -47 62 -4 94 11 112 56 7 16 9 41 6 55 -7
27 -59 65 -88 65 -14 0 -13 -4 7 -24z"/>
<path d="M611 4004 c-18 -19 -44 -54 -58 -76 -22 -32 -24 -41 -13 -48 10 -6 7
-10 -13 -15 -15 -4 -27 -12 -27 -17 0 -6 -11 -23 -25 -39 -14 -18 -22 -36 -18
-46 4 -11 3 -14 -5 -9 -7 4 -20 -6 -32 -26 -22 -37 -27 -63 -6 -35 7 9 22 17
32 17 16 0 14 -4 -11 -25 -16 -13 -35 -24 -40 -25 -6 0 -21 -21 -34 -46 -21
-38 -22 -47 -10 -55 10 -6 10 -9 1 -9 -17 0 -52 -37 -52 -55 0 -8 9 -15 20
-15 12 0 20 -7 20 -16 0 -13 -7 -15 -29 -11 -24 5 -30 2 -41 -21 -23 -51 -100
-294 -99 -315 0 -12 3 -16 6 -9 7 17 48 15 63 -3 11 -13 8 -15 -14 -15 -14 0
-26 -5 -26 -10 0 -7 -6 -7 -19 -1 -23 13 -31 5 -31 -30 0 -23 5 -28 38 -33 20
-3 47 -6 58 -6 12 0 27 -7 34 -15 7 -8 18 -15 25 -15 7 0 26 -7 41 -15 37 -19
55 -19 48 0 -4 8 -1 15 5 15 6 0 11 9 11 20 0 12 -7 20 -17 20 -14 0 -12 3 6
13 29 14 39 37 17 37 -9 0 -16 7 -16 15 0 8 6 12 14 9 15 -6 50 48 39 59 -3 4
-1 13 6 20 16 20 4 43 -32 61 -42 21 -72 44 -65 51 3 3 18 -1 34 -10 16 -8 37
-15 46 -15 9 0 19 -6 21 -12 4 -9 12 -5 26 12 l20 25 -37 5 c-44 7 -65 18 -57
31 4 5 17 4 33 -4 15 -7 37 -11 50 -9 24 4 47 36 37 52 -3 6 -3 10 2 10 4 0
18 23 31 50 l23 50 -20 27 c-26 32 -27 52 -3 30 10 -10 26 -17 35 -17 20 0 35
22 19 28 -7 2 -12 15 -12 30 0 24 1 25 13 7 14 -19 37 -13 37 9 0 7 11 26 25
42 29 34 41 80 26 98 -10 11 -46 29 -118 57 -26 10 -31 29 -8 29 22 0 18 17
-5 23 -11 3 -20 10 -20 17 0 6 3 10 8 8 4 -2 26 -12 50 -23 23 -11 42 -25 42
-32 0 -8 13 -13 33 -13 27 -1 29 -2 14 -11 -17 -10 -16 -12 9 -36 15 -13 30
-21 33 -16 3 5 23 30 44 56 l39 46 -28 36 c-15 20 -34 40 -43 45 -16 9 -6 11
111 14 43 1 78 26 38 26 -33 1 -251 76 -243 84 4 3 -1 6 -9 6 -9 0 -30 -16
-47 -36z m127 -121 l3 -38 -31 33 c-16 18 -30 35 -30 38 0 2 13 4 28 4 25 0
28 -4 30 -37z m-122 -10 c-6 -6 -36 9 -36 18 0 5 9 4 20 -3 10 -7 18 -14 16
-15z m75 -15 l23 -31 -30 7 c-42 11 -57 25 -43 42 17 20 25 17 50 -18z m89
-39 c0 -12 -37 -12 -44 0 -3 4 -3 11 0 14 8 7 44 -4 44 -14z m-230 -4 c13 -16
3 -20 -24 -9 -9 3 -13 10 -10 15 8 13 20 11 34 -6z m0 -69 c14 -1 33 -12 44
-24 15 -19 21 -21 28 -10 7 10 11 10 15 1 2 -7 16 -13 29 -13 13 0 24 -4 24
-10 0 -5 -4 -10 -9 -10 -5 0 -17 -7 -26 -16 -15 -15 -17 -15 -31 5 -8 11 -21
21 -27 21 -7 0 -39 17 -72 36 -43 25 -51 33 -30 28 17 -4 41 -8 55 -8z m-90
-91 c0 -8 -4 -15 -10 -15 -5 0 -10 7 -10 15 0 8 5 15 10 15 6 0 10 -7 10 -15z
m110 6 c9 -1 6 -7 -10 -18 -14 -9 -29 -22 -35 -29 -13 -15 -95 -28 -95 -14 0
5 14 10 32 10 25 0 29 3 20 12 -18 18 13 47 46 43 15 -2 34 -4 42 -4z m-160
-71 c0 -9 -23 -30 -32 -30 -4 0 -8 9 -8 19 0 14 6 19 20 18 11 -1 20 -4 20 -7z
m104 -69 c-6 -6 -24 19 -24 34 1 6 7 1 15 -9 8 -11 12 -22 9 -25z m-56 -9 c3
-9 -2 -13 -14 -10 -9 1 -19 9 -22 16 -3 9 2 13 14 10 9 -1 19 -9 22 -16z m-14
-47 c36 -36 29 -45 -18 -24 -26 12 -40 35 -30 50 8 13 10 12 48 -26z m86 -31
c0 -8 -3 -14 -7 -14 -10 0 -43 58 -43 73 1 17 50 -41 50 -59z m27 36 c9 -14
10 -21 1 -26 -10 -7 -38 21 -38 38 0 16 25 8 37 -12z m-149 -43 c8 -9 6 -16
-8 -25 -21 -13 -33 -2 -24 22 7 19 18 20 32 3z m-98 -27 c0 -5 8 -10 17 -10
12 0 14 -3 6 -11 -14 -14 -49 -3 -57 16 -4 10 1 15 14 15 11 0 20 -4 20 -10z
m10 -140 c0 -5 -9 -10 -21 -10 -11 0 -17 5 -14 10 3 6 13 10 21 10 8 0 14 -4
14 -10z m88 -46 c25 -17 30 -39 7 -30 -8 3 -22 9 -30 12 -11 5 -15 -1 -15 -22
l0 -27 -23 21 c-13 12 -29 22 -35 22 -7 0 -12 7 -12 15 0 17 25 20 35 5 10
-15 35 -12 35 5 0 19 10 19 38 -1z m-100 -46 c29 -29 2 -49 -42 -32 -20 8 -21
24 -1 24 8 0 15 5 15 10 0 14 13 13 28 -2z m43 -131 c-13 -13 -26 -3 -16 12 3
6 11 8 17 5 6 -4 6 -10 -1 -17z m14 -55 c-3 -3 -11 0 -18 7 -9 10 -8 11 6 5
10 -3 15 -9 12 -12z"/>
<path d="M3267 4024 c-3 -4 13 -32 37 -63 44 -57 67 -107 65 -145 0 -12 -6 0
-13 26 -13 47 -42 96 -93 153 l-26 29 -44 -49 c-62 -68 -85 -118 -90 -195 -4
-54 0 -73 19 -110 13 -25 37 -54 55 -65 l32 -20 0 -135 c1 -74 -2 -145 -5
-157 -11 -40 -39 -26 -88 44 -25 37 -46 60 -46 52 -1 -7 -8 -1 -16 14 -8 16
-14 33 -12 39 3 7 29 -24 59 -68 30 -43 63 -80 73 -82 17 -4 18 1 12 55 -5 44
-4 54 4 43 9 -11 10 -2 5 40 -7 62 -25 86 -110 145 -34 23 -62 35 -77 33 -21
-3 -21 -5 11 -22 41 -22 128 -102 143 -131 5 -11 -4 -3 -22 18 -35 41 -142
121 -177 131 -23 7 -23 6 -23 -77 0 -127 26 -203 90 -260 47 -43 123 -72 163
-64 8 1 13 -16 15 -55 l3 -57 -154 6 c-187 7 -227 2 -227 -32 0 -22 5 -24 63
-28 34 -3 381 -4 772 -3 693 1 710 1 713 20 9 44 -11 46 -401 46 l-370 0 26
20 c14 11 29 20 35 20 5 0 47 36 92 80 81 79 82 80 51 80 -26 0 -37 -8 -67
-50 -20 -28 -56 -64 -81 -81 -60 -41 -64 -33 -5 10 53 38 109 107 171 210 14
22 28 38 32 35 16 -9 58 27 64 55 5 22 15 31 45 40 42 12 84 56 108 111 17 39
21 205 5 221 -21 21 -43 -3 -45 -50 l-1 -46 -4 43 c-2 23 -9 42 -14 42 -18 0
-124 -58 -141 -77 -31 -34 -48 -91 -49 -165 0 -40 -4 -82 -9 -93 -6 -14 -7 -6
-3 23 5 37 1 49 -31 97 -24 36 -43 55 -56 55 -28 0 -25 -13 15 -71 19 -28 35
-58 35 -67 0 -9 -10 2 -22 25 -44 78 -63 103 -77 101 -8 -2 -26 -25 -40 -53
-34 -66 -37 -172 -5 -225 17 -29 26 -35 54 -35 28 0 35 5 41 25 6 20 7 21 8 5
2 -49 -185 -245 -234 -245 -7 0 -59 -13 -116 -30 -117 -34 -119 -34 -119 -19
0 5 4 8 9 5 5 -4 16 -3 25 0 22 8 22 96 1 114 -22 18 -19 30 25 89 22 29 40
58 39 65 0 6 -8 0 -17 -14 -28 -41 -61 -71 -72 -65 -5 3 -11 -30 -13 -82 -1
-48 -3 4 -3 117 0 113 1 177 3 142 l4 -63 24 46 c16 29 25 63 25 90 0 37 4 47
31 66 94 67 92 254 -5 372 -40 50 -64 65 -79 51z m-36 -245 c-8 -38 -9 -40
-10 -12 -1 17 2 39 5 48 11 29 14 10 5 -36z m16 -11 c-3 -8 -6 -5 -6 6 -1 11
2 17 5 13 3 -3 4 -12 1 -19z m130 -15 c-3 -10 -5 -4 -5 12 0 17 2 24 5 18 2
-7 2 -21 0 -30z m-7 -53 c-13 -46 -40 -86 -70 -104 -42 -24 -48 -19 -9 7 31
21 60 64 73 110 3 9 7 17 10 17 3 0 1 -13 -4 -30z m555 -71 c-14 -35 -23 -54
-20 -41 3 12 7 32 10 45 3 12 -4 4 -15 -18 -21 -44 -28 -93 -9 -65 8 12 9 10
4 -8 -6 -21 -4 -23 17 -17 35 11 66 33 84 60 9 14 19 23 21 21 3 -3 -4 -18
-16 -34 -19 -28 -84 -62 -116 -62 -26 0 -11 81 25 146 42 72 49 58 15 -27z
m105 14 c-10 -16 -11 -15 -6 7 3 14 6 32 7 40 1 8 4 5 6 -7 2 -12 -1 -30 -7
-40z m-787 -34 c-6 -6 -7 3 -4 23 4 28 6 29 9 9 2 -13 0 -27 -5 -32z m-16 19
c-3 -8 -6 -5 -6 6 -1 11 2 17 5 13 3 -3 4 -12 1 -19z m473 -145 c0 -57 -5 -53
-14 11 -5 33 -4 46 3 41 6 -3 11 -27 11 -52z m101 -12 c8 10 8 7 4 -11 -14
-49 -25 -44 -23 11 1 39 2 44 5 20 4 -27 7 -31 14 -20z m-682 -169 c17 -27 31
-52 31 -57 0 -8 -41 50 -60 85 -20 38 -2 20 29 -28z m469 -182 c-7 -11 -20
-20 -28 -20 -11 1 -8 6 9 20 30 25 34 25 19 0z"/>
<path d="M1757 3964 c-63 -79 -80 -118 -85 -189 -4 -74 25 -137 81 -174 l37
-24 0 -159 c0 -110 -3 -157 -11 -153 -10 7 -38 -21 -39 -37 0 -15 29 -8 40 10
8 13 10 -4 6 -68 -2 -47 -6 -94 -8 -105 -3 -19 4 -20 119 -25 68 -3 178 -3
245 0 103 4 123 8 126 21 5 26 -23 31 -203 37 l-170 5 -1 71 c0 39 1 63 4 53
3 -13 9 -16 25 -11 66 19 146 101 174 177 6 18 12 26 12 19 3 -42 -56 -125
-123 -173 -54 -40 -16 -39 45 0 58 37 84 66 110 126 23 52 37 181 25 230 -10
41 -40 29 -47 -20 l-6 -40 -2 38 c0 23 -6 37 -14 37 -7 0 -42 -17 -77 -39 -87
-52 -139 -124 -147 -204 -7 -72 4 -73 57 -4 63 81 80 100 86 94 9 -9 -42 -78
-51 -69 -4 4 -5 -2 -1 -13 4 -14 -5 -38 -30 -75 -20 -30 -34 -45 -31 -33 4 20
2 22 -19 17 -23 -6 -24 -5 -24 58 0 44 6 76 20 103 11 22 20 59 20 85 0 37 5
51 26 71 60 54 77 143 50 246 -20 76 -92 173 -128 173 -22 0 -23 -13 -4 -30
18 -14 76 -103 76 -115 0 -5 -13 11 -29 36 -16 24 -42 59 -58 78 l-30 35 -46
-60z m181 -159 c0 -16 -2 -15 -8 5 -11 34 -11 60 0 35 5 -11 8 -29 8 -40z
m-128 -1 c0 -8 -4 -12 -10 -9 -6 4 -11 -9 -11 -32 -2 -32 -3 -33 -6 -9 -6 36
5 79 17 71 6 -3 10 -13 10 -21z m116 -132 c-19 -38 -86 -117 -86 -103 0 7 15
27 34 46 19 19 40 50 47 70 8 20 15 32 17 26 2 -5 -4 -23 -12 -39z m-129 16
c-3 -8 -6 -5 -6 6 -1 11 2 17 5 13 3 -3 4 -12 1 -19z m22 -58 c0 -10 -3 -8 -9
5 -12 27 -12 43 0 25 5 -8 9 -22 9 -30z m298 -192 c-3 -7 -5 -2 -5 12 0 14 2
19 5 13 2 -7 2 -19 0 -25z m-270 -155 c-2 -27 -3 -5 -3 47 0 52 1 74 3 48 2
-27 2 -69 0 -95z m21 -176 c12 -3 11 -5 -5 -6 -21 -1 -23 3 -21 47 l1 47 4
-42 c3 -29 9 -43 21 -46z"/>
<path d="M820 3900 c0 -6 6 -13 14 -16 9 -3 12 -13 9 -22 -5 -16 -5 -16 12 0
10 9 15 23 12 32 -7 18 -47 22 -47 6z"/>
<path d="M1040 3860 c0 -5 15 -17 33 -26 45 -23 107 -73 107 -87 0 -6 -15 3
-32 19 -49 45 -136 95 -144 83 -3 -6 -7 -50 -7 -98 0 -66 5 -97 21 -133 22
-52 69 -88 113 -88 23 0 28 -7 47 -72 22 -72 22 -94 -1 -66 -6 8 -23 23 -37
33 -23 16 -18 16 28 -2 14 -6 15 -4 5 8 -9 11 -34 16 -84 17 -47 1 -75 6 -80
14 -5 7 -9 8 -9 3 0 -6 -19 -9 -45 -7 -53 5 -57 -6 -24 -78 25 -55 81 -115
133 -142 47 -24 206 -32 227 -11 19 19 -14 49 -80 71 -31 11 -65 23 -76 27
-17 6 -16 3 5 -15 31 -27 7 -16 -37 17 -49 36 -40 47 15 19 26 -13 67 -29 92
-36 32 -9 61 -28 100 -67 57 -57 117 -97 160 -108 14 -3 35 -14 47 -23 22 -16
0 -17 -390 -14 -399 4 -413 3 -437 -16 -21 -17 -23 -22 -10 -37 12 -15 53 -16
499 -11 267 2 496 8 508 11 38 12 36 43 -5 65 -21 10 -33 19 -29 20 4 0 30
-11 57 -25 55 -28 60 -29 60 -15 0 14 -34 29 -98 46 -105 27 -194 78 -258 149
-33 35 -67 65 -76 65 -19 0 -23 -10 -10 -26 4 -6 -10 8 -30 30 -41 44 -46 56
-24 56 8 0 21 22 31 53 10 28 22 57 28 62 7 7 7 4 2 -10 -4 -11 -16 -47 -27
-79 -17 -54 -17 -61 -3 -75 13 -14 15 -13 15 4 0 15 2 17 9 6 13 -21 45 2 70
51 12 24 19 32 15 18 -3 -14 -15 -38 -26 -53 -24 -35 -16 -46 20 -27 37 21 72
93 72 151 0 50 -51 166 -77 176 -27 10 -36 -12 -19 -46 22 -42 13 -39 -14 4
-12 19 -26 32 -32 29 -5 -4 -28 -34 -49 -67 -38 -59 -49 -64 -29 -12 6 17 6
42 -1 77 -14 65 -71 129 -151 169 -64 32 -68 33 -68 19z m169 -200 c-1 -23 -2
-22 -9 5 -4 17 -11 39 -14 50 -5 13 -2 12 8 -5 8 -14 15 -36 15 -50z m-107 33
c25 -30 68 -109 68 -126 0 -32 -25 -16 -49 31 -38 75 -52 112 -43 112 5 0 16
-8 24 -17z m105 -130 c-3 -10 -5 -2 -5 17 0 19 2 27 5 18 2 -10 2 -26 0 -35z
m212 -3 c0 -10 -3 -8 -9 5 -12 27 -12 43 0 25 5 -8 9 -22 9 -30z m8 -52 c-3
-7 -5 -2 -5 12 0 14 2 19 5 13 2 -7 2 -19 0 -25z m-175 -61 c3 -15 3 -27 1
-27 -4 0 -33 65 -33 75 0 17 27 -24 32 -48z m213 -250 c17 -9 26 -16 20 -16
-23 0 -84 45 -125 94 -13 17 -2 9 25 -16 28 -26 64 -54 80 -62z m-214 73 c26
-14 24 -25 -6 -38 -38 -18 -45 -14 -10 5 l30 16 -30 13 c-16 7 -24 13 -17 14
7 0 22 -5 33 -10z m299 -110 c8 -5 11 -10 5 -10 -5 0 -17 5 -25 10 -8 5 -10
10 -5 10 6 0 17 -5 25 -10z m47 -16 c-3 -3 -12 -4 -19 -1 -8 3 -5 6 6 6 11 1
17 -2 13 -5z"/>
<path d="M1090 3683 c0 -15 61 -115 67 -110 3 3 -9 31 -27 61 -30 53 -40 65
-40 49z"/>
<path d="M1550 3605 c0 -2 22 -17 48 -32 76 -44 162 -127 162 -156 0 -7 -8 2
-19 19 -32 53 -182 164 -222 164 -7 0 -10 -31 -7 -97 4 -123 29 -180 102 -235
44 -32 102 -55 113 -44 5 4 -15 42 -44 86 -12 19 -10 17 9 -4 14 -16 32 -30
41 -32 22 -3 40 46 33 92 -5 29 -4 34 3 19 8 -16 10 -10 10 28 1 27 -4 57 -9
68 -10 18 -103 85 -161 114 -27 15 -59 20 -59 10z m126 -227 c47 -72 62 -98
47 -83 -6 6 -25 33 -42 60 -17 28 -31 43 -31 35 -1 -14 -29 26 -30 43 -1 20
19 1 56 -55z"/>
<path d="M3463 3578 c-67 -25 -126 -77 -157 -140 -26 -52 -36 -138 -16 -138 6
0 25 20 42 45 23 33 34 42 41 32 6 -8 7 -6 3 6 -6 19 20 67 36 67 6 0 3 -11
-6 -25 -9 -13 -16 -31 -16 -39 0 -8 -20 -44 -45 -80 -25 -37 -45 -70 -45 -76
0 -11 120 -7 142 6 90 51 148 174 148 314 l0 50 -39 -2 c-21 0 -61 -9 -88 -20z
m67 -147 c-19 -87 -54 -141 -118 -183 -45 -29 -48 -20 -5 11 23 16 52 45 66
63 26 34 56 122 58 167 0 14 3 20 6 12 3 -7 0 -39 -7 -70z"/>
<path d="M4118 3401 c-20 -66 -87 -149 -147 -181 -34 -18 -34 -19 -10 -20 50
0 156 86 193 158 8 15 17 44 21 65 7 34 5 37 -16 37 -21 0 -27 -9 -41 -59z"/>
<path d="M3940 3435 c-44 -10 -63 -22 -92 -55 -65 -73 -44 -90 56 -44 109 50
67 5 -51 -55 -34 -18 -65 -37 -69 -43 -9 -14 13 -26 64 -34 59 -9 126 18 180
73 39 40 92 131 92 161 0 16 -107 15 -180 -3z"/>
<path d="M1935 3346 c-9 -14 -15 -31 -13 -38 3 -7 12 2 22 20 21 41 14 54 -9
18z"/>
<path d="M3870 3310 c-9 -6 -10 -10 -3 -10 6 0 15 5 18 10 8 12 4 12 -15 0z"/>
<path d="M853 3281 c8 -38 0 -41 -13 -5 -15 38 -43 28 -51 -19 -8 -47 13 -81
47 -74 13 2 25 0 27 -6 6 -19 47 4 54 31 7 31 -25 95 -52 101 -15 2 -17 -2
-12 -28z"/>
<path d="M4263 3250 c9 -23 9 -35 -1 -50 -6 -11 -12 -22 -12 -24 0 -7 44 6 58
17 30 23 2 87 -38 87 -16 0 -17 -3 -7 -30z"/>
<path d="M4192 3258 c-15 -15 -16 -64 -1 -73 20 -13 59 5 65 30 11 43 -34 73
-64 43z"/>
<path d="M2920 3251 c0 -6 5 -13 10 -16 12 -8 13 -52 1 -59 -4 -3 -6 6 -3 19
9 48 -46 76 -68 35 -18 -33 3 -57 55 -65 53 -7 75 5 75 41 0 12 -10 30 -22 38
-25 18 -48 21 -48 7z"/>
<path d="M2197 3223 c3 -26 3 -27 -6 -5 -7 14 -19 22 -35 22 -30 0 -40 -14
-32 -46 7 -26 33 -32 55 -11 11 10 13 9 7 -1 -13 -23 24 -26 47 -4 18 18 19
25 9 47 -6 14 -20 25 -30 25 -15 0 -18 -6 -15 -27z"/>
<path d="M2645 3229 c-11 -17 1 -21 15 -4 8 9 8 15 2 15 -6 0 -14 -5 -17 -11z"/>
<path d="M2268 3093 c6 -2 12 -18 12 -34 0 -32 3 -34 31 -19 37 20 10 61 -38
59 -10 0 -13 -3 -5 -6z"/>
<path d="M4380 3085 c7 -9 10 -25 6 -41 -6 -23 -4 -25 21 -22 52 6 39 78 -14
78 -21 0 -23 -2 -13 -15z"/>
<path d="M135 2963 c-4 -16 -11 -48 -17 -73 -5 -25 -12 -79 -14 -120 -3 -41
-7 -119 -10 -172 -5 -69 -3 -98 5 -98 6 0 11 -13 11 -30 0 -16 -5 -30 -11 -30
-15 0 -4 -151 13 -162 11 -6 10 -10 -1 -17 -19 -13 -4 -31 26 -31 18 0 24 4
19 15 -6 16 28 58 54 67 11 4 8 9 -12 18 -16 7 -28 18 -28 25 0 7 -11 10 -29
7 -16 -2 -32 1 -35 7 -10 16 69 14 95 -1 17 -11 22 -10 35 6 29 39 7 77 -41
73 -15 -2 -20 4 -20 23 0 19 6 26 25 28 21 2 28 -5 44 -40 16 -34 17 -46 8
-71 -15 -38 -11 -42 25 -25 51 24 56 97 7 107 -27 5 -46 23 -36 33 10 10 60
-14 73 -34 5 -8 8 4 7 30 -1 33 -5 42 -16 37 -8 -3 -25 1 -38 10 -13 8 -30 12
-38 9 -9 -3 -16 -1 -16 5 0 7 -8 11 -17 9 -18 -3 -29 23 -19 48 5 13 9 13 34
0 36 -19 114 -24 119 -9 3 7 -8 15 -24 19 -74 17 -84 20 -86 28 -2 10 29 16
86 17 22 0 37 5 37 12 1 7 5 31 9 55 8 43 8 43 -11 23 -25 -28 -41 -27 -33 2
5 18 3 17 -10 -5 -9 -16 -32 -35 -52 -43 -47 -20 -47 -20 -26 15 9 17 22 30
28 30 6 0 22 14 34 31 16 21 26 28 33 21 15 -15 58 15 58 40 0 14 -5 18 -15
14 -44 -18 -49 -16 -22 8 32 30 34 42 7 42 -11 0 -20 -6 -20 -13 0 -15 -26
-18 -35 -4 -3 5 -1 12 5 16 16 10 12 22 -10 28 -10 3 -24 -1 -31 -9 -16 -20
-29 -17 -29 6 0 11 -6 20 -14 20 -7 0 -19 7 -26 15 -21 25 -49 18 -55 -12z
m25 -32 c0 -6 -4 -13 -10 -16 -5 -3 -10 1 -10 9 0 9 5 16 10 16 6 0 10 -4 10
-9z m30 -26 c0 -8 -4 -15 -10 -15 -5 0 -10 7 -10 15 0 8 5 15 10 15 6 0 10 -7
10 -15z m90 -62 c0 -7 -6 -13 -14 -13 -8 0 -17 -7 -20 -16 -3 -8 -10 -12 -16
-9 -5 3 -10 -1 -10 -11 0 -9 -11 -27 -25 -40 -14 -13 -25 -32 -25 -42 0 -22
-26 -37 -36 -21 -3 5 0 16 6 24 7 9 9 26 6 41 -5 20 -4 25 7 21 18 -7 40 7 43
27 3 22 37 64 54 68 16 4 30 -9 30 -29z m-115 -253 c3 -5 2 -10 -4 -10 -5 0
-13 5 -16 10 -3 6 -2 10 4 10 5 0 13 -4 16 -10z m-15 -115 c0 -33 -15 -33 -16
0 -1 14 2 25 7 25 5 0 9 -11 9 -25z"/>
<path d="M793 2913 c-84 -2 -153 -7 -153 -12 0 -4 11 -18 24 -30 46 -43 47
-55 44 -467 l-3 -391 -33 -37 c-18 -21 -31 -40 -28 -43 10 -10 274 -15 280 -5
3 5 -8 27 -24 47 -17 21 -30 43 -30 49 0 6 8 -2 18 -19 11 -16 26 -36 35 -44
10 -7 17 -22 17 -32 0 -12 7 -19 20 -19 35 0 33 26 -4 75 -35 46 -36 48 -36
139 0 64 4 98 15 112 9 14 12 30 7 49 l-8 29 -28 -48 c-15 -26 -30 -46 -32
-43 -3 2 10 28 27 56 36 57 40 56 72 -24 50 -124 80 -194 97 -230 10 -22 22
-52 25 -67 l5 -28 114 0 c83 0 116 -3 119 -12 2 -7 6 2 9 19 3 25 -3 44 -23
75 -35 52 -143 307 -199 468 -12 34 -10 39 41 125 29 50 65 113 80 140 15 28
44 66 63 84 25 24 36 44 36 63 0 15 -4 28 -10 28 -5 0 -10 -7 -10 -15 0 -8
-23 -36 -51 -62 -28 -26 -57 -60 -66 -76 -8 -16 -17 -26 -20 -23 -9 9 27 58
78 107 27 25 49 49 49 52 0 4 -63 7 -140 7 -77 0 -140 -3 -140 -8 0 -4 7 -18
16 -31 15 -22 15 -26 -7 -74 -13 -29 -39 -78 -57 -111 -19 -32 -54 -95 -78
-140 -28 -52 -44 -73 -44 -58 0 12 4 22 8 22 4 0 18 20 30 45 19 38 22 63 22
155 l0 110 41 40 c42 40 44 62 6 58 -12 -1 -91 -4 -174 -5z m113 -58 c-20 -19
-36 -32 -36 -28 0 10 63 74 68 69 2 -3 -12 -21 -32 -41z m268 -147 c-5 -7 -32
-51 -61 -97 -29 -47 -53 -92 -53 -102 0 -9 14 -49 30 -89 17 -40 29 -75 27
-77 -2 -2 -20 35 -39 82 l-36 84 37 63 c56 94 91 148 97 148 3 0 2 -6 -2 -12z
m-3 -485 c16 -41 0 -24 -20 21 -27 61 -36 101 -10 46 11 -25 25 -55 30 -67z
m40 -105 c13 -34 43 -86 67 -116 24 -29 42 -56 39 -58 -15 -15 -109 138 -132
214 -14 46 3 19 26 -40z"/>
<path d="M2350 2909 c0 -6 -13 -27 -30 -46 -16 -18 -30 -30 -30 -25 0 5 11 19
25 32 13 12 22 27 19 31 -7 11 -261 12 -268 1 -3 -5 7 -26 22 -47 l27 -38 3
-376 c2 -207 0 -390 -3 -408 -3 -17 -19 -46 -35 -63 -17 -18 -30 -34 -30 -36
0 -2 68 -4 152 -4 l152 0 -32 33 c-18 18 -32 36 -32 41 0 4 17 -13 38 -38 23
-28 46 -45 60 -45 29 -1 28 14 -4 42 -54 46 -54 45 -54 465 l0 388 35 38 c39
43 42 51 19 60 -23 9 -34 7 -34 -5z m-73 -331 c-2 -24 -4 -5 -4 42 0 47 2 66
4 43 2 -24 2 -62 0 -85z m0 -140 c-3 -7 -5 -2 -5 12 0 14 2 19 5 13 2 -7 2
-19 0 -25z"/>
<path d="M2820 2885 c67 -35 90 -42 90 -26 0 12 -77 47 -120 54 -30 5 -25 1
30 -28z"/>
<path d="M3187 2910 l-159 -5 30 -38 c43 -53 46 -94 39 -487 -5 -346 -9 -374
-49 -417 -12 -13 -18 -26 -15 -29 4 -4 69 -6 146 -5 82 1 141 -2 145 -7 7 -12
46 -4 46 10 0 5 -12 26 -27 45 l-28 36 0 174 0 174 110 -3 110 -3 -3 -170 c-3
-163 -4 -172 -28 -208 -14 -22 -23 -41 -21 -44 8 -7 277 -9 277 -1 0 3 -11 20
-25 36 -14 17 -25 33 -25 37 0 9 45 -45 59 -72 6 -13 18 -23 26 -23 28 0 27
23 -4 65 l-31 43 0 401 0 400 28 33 c29 34 32 68 6 68 -8 0 -14 -4 -14 -9 0
-5 -16 -28 -35 -51 -19 -23 -35 -38 -35 -33 0 4 14 24 30 43 l30 35 -141 3
c-78 1 -144 0 -148 -3 -3 -3 -1 -12 4 -19 51 -70 50 -62 50 -225 l0 -156 -117
-3 -118 -3 10 26 c6 15 10 85 10 156 0 138 5 160 48 195 27 22 23 46 -6 42 -9
-1 -88 -5 -175 -8z m120 -44 c-32 -30 -36 -47 -40 -161 l-3 -90 -2 98 c-2 103
10 145 45 166 28 16 28 13 0 -13z m-4 -907 c7 -8 0 -2 -15 15 -16 17 -28 37
-28 46 0 8 7 2 16 -15 8 -16 21 -37 27 -46z"/>
<path d="M4077 2862 c-24 -51 -28 -70 -30 -172 l-3 -115 -2 126 c-2 119 -1
127 23 159 14 19 25 38 25 42 0 4 -62 8 -137 8 l-136 0 21 -22 c40 -44 42 -66
42 -469 0 -403 -1 -415 -42 -471 -7 -9 -10 -19 -8 -22 3 -2 65 -1 139 2 l134
7 -37 43 c-36 44 -36 45 -34 130 l2 87 5 -92 c5 -82 9 -95 33 -120 15 -15 31
-39 37 -53 5 -14 10 -18 10 -10 1 13 21 14 147 7 81 -4 149 -5 152 -2 3 3 -8
20 -26 38 -43 45 -52 76 -50 175 l1 87 6 -102 c6 -97 8 -104 37 -135 18 -18
37 -43 43 -55 13 -26 39 -30 48 -7 3 9 -6 28 -24 47 -17 18 -35 41 -41 52 -10
21 -16 664 -6 748 4 34 15 59 36 83 31 35 32 64 3 64 -9 0 -18 -8 -22 -17 -3
-10 -14 -27 -24 -38 -10 -11 -25 -33 -33 -50 -9 -16 -16 -23 -16 -15 0 18 28
61 47 73 7 4 13 15 13 22 0 12 -24 15 -140 15 -102 0 -140 -3 -140 -12 0 -7
-5 -5 -12 4 -11 14 -17 9 -41 -40z m103 -429 c0 -387 -1 -398 -22 -442 -13
-27 -24 -39 -26 -30 -3 7 -13 25 -23 37 -17 23 -18 47 -13 415 5 337 8 397 22
430 l17 37 23 -25 22 -26 0 -396z m167 145 c-1 -40 -3 -10 -3 67 0 77 1 110 3
73 2 -37 2 -100 0 -140z"/>
<path d="M1350 2906 c0 -3 14 -25 31 -49 l31 -44 2 -389 c1 -348 -1 -392 -16
-420 -9 -17 -24 -36 -32 -43 -9 -8 -16 -17 -16 -22 0 -5 65 -9 145 -9 80 0
145 3 145 6 0 4 -13 22 -30 41 -16 18 -30 38 -30 44 0 6 16 -10 35 -35 19 -26
35 -50 35 -55 0 -15 16 -22 34 -15 23 9 20 27 -9 54 -39 37 -48 81 -41 200 6
93 5 110 -10 124 -9 10 -23 15 -31 12 -8 -3 -11 -1 -8 4 3 6 17 10 30 10 27 0
54 -52 141 -265 25 -60 49 -114 55 -120 5 -5 59 -10 119 -10 105 0 109 1 115
23 4 16 -3 34 -25 61 -29 36 -53 91 -118 270 -21 56 -24 75 -14 78 33 12 74
60 107 125 28 56 35 82 35 128 0 76 -22 147 -61 194 -36 42 -156 106 -199 105
-23 0 -24 -1 -5 -10 17 -8 16 -8 -5 -3 -33 8 -410 18 -410 10z m465 -26 c3 -6
-1 -7 -9 -4 -18 7 -21 14 -7 14 6 0 13 -4 16 -10z m92 -60 c22 -20 68 -100 58
-100 -2 0 -14 18 -25 39 -11 22 -40 54 -65 72 -25 18 -45 34 -45 36 0 7 56
-26 77 -47z m-182 -80 c47 -23 85 -80 85 -129 0 -77 -60 -141 -144 -157 l-38
-7 7 153 7 153 -31 -5 c-17 -2 -31 -1 -31 4 0 16 104 8 145 -12z m252 -147
c-2 -16 -4 -5 -4 22 0 28 2 40 4 28 2 -13 2 -35 0 -50z m-400 -115 c-2 -13 -4
-5 -4 17 -1 22 1 32 4 23 2 -10 2 -28 0 -40z m374 5 c-23 -43 -68 -94 -104
-118 l-25 -16 20 -51 c10 -28 17 -52 15 -54 -2 -3 -13 20 -24 49 l-20 54 54
48 c30 26 64 67 76 91 11 24 22 42 25 40 2 -2 -6 -21 -17 -43z m-41 -352 c23
-54 57 -117 76 -139 36 -42 45 -64 18 -41 -27 22 -65 88 -106 183 -39 93 -41
96 -34 96 2 0 23 -45 46 -99z m-333 -83 c-3 -8 -6 -5 -6 6 -1 11 2 17 5 13 3
-3 4 -12 1 -19z"/>
<path d="M2582 2890 c-108 -48 -162 -129 -162 -242 0 -82 16 -131 61 -182 37
-42 121 -93 189 -115 118 -38 165 -161 91 -240 -25 -26 -36 -31 -76 -31 -30 0
-62 8 -87 22 -44 25 -112 119 -123 170 l-7 32 -14 -26 c-12 -24 -34 -169 -34
-228 0 -21 13 -32 73 -66 97 -56 128 -64 232 -63 115 2 157 19 220 93 66 76
78 106 79 201 1 70 -2 86 -26 127 -39 65 -107 122 -186 153 -102 40 -148 70
-166 109 -24 50 -20 83 13 116 16 16 26 32 22 36 -3 4 12 4 34 1 51 -8 145
-74 165 -115 17 -35 30 -41 31 -14 0 11 4 7 11 -10 24 -67 56 -11 65 113 7 94
-1 136 -22 119 -8 -7 -15 -9 -15 -5 0 4 -7 2 -14 -5 -12 -9 -33 -3 -105 29
-105 47 -175 53 -249 21z m78 -134 c0 -3 -14 -11 -30 -20 -17 -8 -28 -10 -24
-5 3 6 16 14 28 19 26 11 26 11 26 6z m-67 -61 c-3 -9 -8 -14 -10 -11 -3 3 -2
9 2 15 9 16 15 13 8 -4z m334 -27 c-3 -8 -6 -5 -6 6 -1 11 2 17 5 13 3 -3 4
-12 1 -19z m-328 -73 c0 -5 -4 -3 -9 5 -5 8 -9 22 -9 30 0 16 17 -16 18 -35z
m106 -83 c-5 -6 -81 36 -94 52 -7 9 12 1 42 -17 30 -17 53 -33 52 -35z m126
-51 c24 -15 55 -41 69 -57 l25 -29 -30 26 c-17 15 -52 41 -79 58 -28 17 -45
31 -40 31 6 0 30 -13 55 -29z m129 -147 c7 -20 9 -38 6 -41 -3 -4 -6 0 -6 8 0
8 -9 32 -19 52 -12 24 -14 34 -6 27 8 -6 19 -27 25 -46z m17 -113 c-4 -54 -41
-160 -52 -149 -2 2 5 23 16 46 12 23 23 69 26 102 3 33 8 60 11 60 3 0 2 -26
-1 -59z m-77 -192 c-12 -21 -96 -79 -114 -79 -6 1 5 9 24 20 19 10 48 32 64
49 35 36 41 39 26 10z"/>
<path d="M91 2474 c0 -11 3 -14 6 -6 3 7 2 16 -1 19 -3 4 -6 -2 -5 -13z"/>
<path d="M452 2462 c-10 -3 -9 -8 4 -23 11 -12 15 -29 12 -49 -4 -28 -2 -31
21 -28 20 2 27 9 29 30 6 48 -28 83 -66 70z"/>
<path d="M4631 2439 c6 -12 9 -37 6 -55 -5 -29 -3 -34 13 -34 21 0 40 28 40
59 0 25 -26 51 -51 51 -17 0 -18 -3 -8 -21z"/>
<path d="M377 2443 c-4 -3 -7 -22 -7 -40 0 -34 0 -34 43 -31 35 3 43 7 45 26
2 13 -2 30 -8 38 -13 14 -61 19 -73 7z"/>
<path d="M4557 2443 c-4 -3 -7 -19 -7 -34 0 -35 35 -63 62 -48 21 11 25 58 6
77 -13 13 -50 16 -61 5z"/>
<path d="M310 2361 c0 -5 -9 -13 -20 -16 -11 -3 -20 -12 -20 -20 0 -7 -16 -22
-35 -34 -19 -11 -40 -32 -45 -46 -5 -14 -16 -25 -23 -25 -8 0 -24 -9 -37 -20
-22 -19 -22 -22 -11 -82 19 -100 72 -299 91 -343 10 -22 23 -62 29 -90 27
-112 197 -425 329 -605 108 -147 320 -365 434 -448 104 -76 198 -140 238 -163
133 -76 229 -127 260 -139 19 -7 59 -24 88 -37 251 -111 550 -168 887 -168
193 0 425 19 425 34 0 3 -120 6 -267 6 -214 0 -290 4 -377 18 -116 20 -380 88
-433 113 -17 7 -35 14 -41 14 -18 0 -189 80 -332 156 -90 48 -292 202 -425
323 -105 97 -290 331 -361 456 -20 35 -82 139 -103 173 -12 18 -21 40 -21 49
0 8 -13 45 -29 81 -16 37 -46 117 -66 177 -36 108 -55 146 -55 112 0 -9 -7
-17 -15 -17 -9 0 -25 -9 -37 -20 -27 -25 -47 -26 -46 -2 0 9 -3 26 -7 36 -7
16 -5 18 13 14 24 -7 26 -1 13 53 -5 21 -5 43 0 50 6 10 9 9 9 -7 0 -11 9 -29
20 -39 12 -10 19 -24 16 -31 -3 -7 2 -15 10 -18 13 -5 14 3 9 52 -5 43 -13 63
-31 80 -15 13 -20 22 -12 22 8 0 19 -5 26 -12 9 -9 12 -8 12 5 0 10 -7 20 -15
23 -14 6 -13 8 2 19 17 13 16 14 -9 24 -32 12 -38 36 -8 28 14 -4 20 0 20 12
0 10 -3 21 -7 24 -3 4 -7 26 -7 49 -1 24 -3 76 -4 116 -2 56 -5 72 -17 72 -8
0 -15 -4 -15 -9z m-50 -315 c0 -2 -7 -7 -16 -10 -8 -3 -12 -2 -9 4 6 10 25 14
25 6z m0 -45 c0 -12 -20 -25 -27 -18 -7 7 6 27 18 27 5 0 9 -4 9 -9z m10 -35
c0 -11 -19 -15 -25 -6 -3 5 1 10 9 10 9 0 16 -2 16 -4z m-20 -96 c0 -5 -6 -10
-14 -10 -8 0 -18 5 -21 10 -3 6 3 10 14 10 12 0 21 -4 21 -10z m-9 -48 c-7 -2
-18 1 -23 6 -8 8 -4 9 13 5 13 -4 18 -8 10 -11z m9 -26 c0 -3 -4 -8 -10 -11
-5 -3 -10 -1 -10 4 0 6 5 11 10 11 6 0 10 -2 10 -4z m707 -972 c-3 -3 -12 -4
-19 -1 -8 3 -5 6 6 6 11 1 17 -2 13 -5z"/>
<path d="M2500 2289 c-30 -56 86 -199 161 -199 22 0 21 2 -9 16 -35 18 -95
106 -114 167 -13 42 -22 46 -38 16z"/>
<path d="M4831 2075 c-1 -11 -4 -31 -6 -45 l-6 -25 11 25 c6 13 9 33 7 45 -4
19 -4 19 -6 0z"/>
<path d="M1534 1794 c5 -14 4 -14 -7 -5 -11 8 -128 11 -433 9 l-419 -3 -3 -27
c-3 -22 2 -29 20 -33 13 -3 204 -5 426 -3 386 3 404 4 418 22 8 11 14 15 14
10 0 -6 -6 -16 -12 -23 -11 -10 -7 -12 16 -9 16 2 34 11 40 21 9 15 7 22 -13
38 -29 24 -56 25 -47 3z"/>
<path d="M4387 1793 c5 -15 3 -16 -8 -5 -10 9 -116 12 -460 12 -442 0 -448 0
-454 -20 -16 -50 -15 -50 459 -50 330 0 445 3 454 12 9 9 12 9 12 -1 0 -22 55
-9 58 15 3 23 -11 38 -45 48 -19 6 -22 4 -16 -11z"/>
<path d="M2038 1718 c-7 -13 -15 -48 -19 -78 l-7 -55 2 55 c1 30 6 63 10 73 7
14 3 17 -25 17 -47 0 -52 -5 -106 -95 -45 -73 -73 -103 -73 -75 0 6 4 9 9 6
25 -16 16 31 -17 94 -29 54 -42 70 -59 70 -13 0 -23 -2 -23 -5 0 -11 34 -71
58 -103 14 -18 22 -35 20 -38 -5 -4 -28 29 -85 124 -10 17 -23 22 -54 22 -38
0 -41 -2 -34 -22 5 -13 10 -99 12 -191 5 -165 4 -170 -18 -193 l-22 -24 66 0
c61 0 82 9 57 25 -5 3 -9 34 -8 68 1 50 2 54 5 17 6 -92 38 -149 67 -120 7 7
7 16 -2 30 -6 11 -12 40 -12 65 0 42 -20 89 -43 106 -5 4 -7 13 -5 20 3 8 23
-14 48 -53 24 -38 47 -68 52 -68 5 0 21 21 36 46 59 101 61 101 62 -8 0 -54
-4 -100 -10 -103 -5 -3 -10 -12 -10 -20 0 -9 14 -13 53 -12 28 1 69 -2 90 -6
30 -6 38 -5 43 8 4 9 -1 24 -10 34 -23 25 -24 345 -1 377 8 12 11 24 8 28 -14
13 -43 5 -55 -16z m-4 -388 c10 -13 9 -13 -6 -1 -10 7 -18 21 -17 30 0 13 1
14 6 1 3 -8 11 -22 17 -30z"/>
<path d="M2650 1733 c0 -5 -73 -7 -161 -5 -146 3 -161 1 -155 -13 3 -9 6 -37
6 -61 0 -37 3 -44 20 -44 11 0 20 6 20 14 0 8 7 17 16 20 24 9 31 7 12 -5 -10
-5 -18 -17 -18 -26 0 -12 7 -14 31 -9 l30 6 -4 -133 c-2 -72 -7 -142 -11 -154
-8 -22 -6 -23 58 -23 66 0 79 7 51 30 -8 7 -15 17 -15 23 0 5 9 -2 20 -16 11
-14 20 -30 20 -36 0 -6 9 -11 20 -11 21 0 29 33 10 45 -6 4 -10 66 -10 155 0
109 -3 150 -12 153 -10 4 -10 6 0 6 8 1 16 -8 19 -19 6 -21 43 -28 43 -8 0 6
6 3 14 -7 8 -11 19 -16 30 -12 12 5 16 20 16 72 0 63 -1 65 -25 65 -14 0 -25
-3 -25 -7z m-100 -87 c0 -3 -4 -8 -10 -11 -5 -3 -10 -1 -10 4 0 6 5 11 10 11
6 0 10 -2 10 -4z"/>
<path d="M2140 1711 c15 -29 13 -356 -2 -381 -7 -10 -10 -21 -8 -23 3 -2 44
-7 93 -10 87 -5 104 2 77 29 -7 7 -13 81 -16 178 -3 137 -1 172 11 196 15 29
15 30 -8 30 -16 0 -28 -10 -40 -32 -9 -20 -16 -26 -16 -16 -1 9 4 20 9 23 22
14 -4 25 -56 25 -51 0 -54 -1 -44 -19z m97 -263 c-2 -18 -4 -6 -4 27 0 33 2
48 4 33 2 -15 2 -42 0 -60z m15 -123 c9 -20 9 -20 -6 -1 -9 11 -16 27 -15 35
0 14 1 14 6 1 3 -8 10 -24 15 -35z"/>
<path d="M2728 1713 c5 -10 13 -97 17 -193 6 -155 5 -178 -9 -189 -41 -34 -10
-43 102 -27 12 2 22 -1 22 -5 0 -5 11 -9 25 -9 29 0 31 8 10 36 -8 10 -15 33
-15 50 0 39 -22 69 -44 61 -10 -4 -15 -3 -11 3 21 34 75 -20 98 -99 l12 -43
58 -1 c31 -1 57 0 57 1 0 2 -8 16 -19 30 -22 32 -43 72 -38 72 2 0 18 -22 36
-50 36 -55 48 -60 133 -57 57 2 72 9 43 21 -8 3 -15 13 -15 22 0 13 5 11 20
-9 11 -14 20 -30 20 -36 0 -6 9 -11 20 -11 23 0 28 35 6 43 -11 4 -12 13 -3
46 9 35 15 41 37 41 14 0 31 -5 38 -12 16 -16 16 -70 0 -86 -7 -7 -10 -12 -7
-12 56 -5 126 -7 131 -4 4 3 -4 23 -18 47 -13 23 -24 47 -24 52 0 6 15 -17 34
-50 22 -40 40 -61 54 -63 25 -4 29 14 8 43 -28 41 -99 227 -132 348 -13 49
-19 57 -40 57 -30 0 -30 0 1 -90 14 -40 23 -75 21 -77 -2 -3 -17 34 -32 81
l-28 86 -36 0 -35 0 -59 -193 c-33 -105 -64 -201 -69 -212 -9 -18 -11 -16 -23
19 -8 21 -23 54 -35 73 l-21 34 27 29 c36 37 46 129 20 183 -25 54 -59 64
-213 66 -124 1 -132 0 -124 -16z m302 -76 c0 -6 -6 -3 -12 8 -6 11 -18 29 -27
40 -9 12 -4 8 12 -7 15 -16 27 -34 27 -41z m-101 -13 c26 -33 26 -49 1 -74
-14 -14 -32 -20 -57 -19 -21 1 -30 3 -20 6 13 3 17 15 17 53 0 45 -2 49 -27
53 -18 2 -11 5 19 6 39 1 50 -3 67 -25z m346 -80 c23 -54 20 -64 -17 -63 -31
2 -31 2 -5 6 15 2 27 6 27 7 0 18 -24 65 -31 60 -10 -6 -12 9 -2 19 10 11 12
9 28 -29z m-458 4 c-3 -8 -6 -5 -6 6 -1 11 2 17 5 13 3 -3 4 -12 1 -19z m213
-13 c0 -8 -14 -30 -31 -49 -26 -30 -29 -38 -19 -58 11 -22 10 -22 -4 -4 -21
27 -21 30 14 64 17 17 30 38 30 46 0 9 2 16 5 16 3 0 5 -7 5 -15z m360 -50 c0
-5 -5 -3 -10 5 -5 8 -10 20 -10 25 0 6 5 3 10 -5 5 -8 10 -19 10 -25z m20 -70
c0 -5 -5 -3 -10 5 -5 8 -10 20 -10 25 0 6 5 3 10 -5 5 -8 10 -19 10 -25z
m-199 -42 c-12 -20 -14 -14 -5 12 4 9 9 14 11 11 3 -2 0 -13 -6 -23z m-365
-50 c-7 -7 -26 7 -26 19 0 6 6 6 15 -2 9 -7 13 -15 11 -17z"/>
<path d="M1530 1663 c0 -5 -187 -8 -417 -8 -437 0 -461 -2 -437 -42 10 -17 38
-18 419 -21 378 -2 410 -1 428 15 19 18 20 17 8 -4 -10 -20 -9 -23 8 -23 42 0
72 70 35 84 -22 8 -44 8 -44 -1z"/>
<path d="M4385 1625 c0 -43 2 -46 25 -43 20 2 26 9 28 37 4 34 -9 51 -38 51
-11 0 -15 -12 -15 -45z"/>
<path d="M3499 1644 c-9 -11 -10 -20 -2 -32 9 -15 50 -17 444 -17 l434 0 0 30
0 30 -431 3 c-385 2 -433 0 -445 -14z"/>
<path d="M1510 1533 c0 -5 6 -15 13 -23 9 -11 7 -11 -8 1 -17 12 -74 14 -415
9 l-395 -5 -3 -22 c-2 -13 4 -25 15 -30 10 -4 196 -6 415 -3 218 3 394 2 391
-2 -9 -15 36 -8 51 8 20 20 20 27 -1 46 -22 19 -63 33 -63 21z"/>
<path d="M4355 1517 c13 -21 14 -30 5 -47 -15 -28 -6 -36 28 -24 18 6 28 17
30 35 3 29 -11 44 -52 55 l-28 7 17 -26z"/>
<path d="M3513 1512 c-46 -46 -8 -51 427 -52 369 -2 404 0 413 15 6 12 5 22
-7 33 -13 14 -65 16 -417 16 -321 1 -405 -2 -416 -12z"/>
<path d="M1887 1442 c-27 -42 -28 -62 -3 -62 19 0 38 43 34 76 l-3 29 -28 -43z"/>
<path d="M1539 1397 c0 -1 -2 -21 -4 -44 -3 -36 0 -43 15 -43 43 0 54 66 13
81 -13 5 -23 7 -24 6z"/>
<path d="M4270 1384 c0 -12 -4 -14 -12 -7 -8 6 -161 9 -378 9 -361 -1 -365 -1
-368 -22 -6 -40 28 -44 393 -44 317 0 345 1 355 18 9 15 10 14 5 -5 -5 -19 -2
-23 17 -23 30 0 48 17 48 45 0 12 -5 26 -12 33 -17 17 -48 15 -48 -4z"/>
<path d="M833 1382 c-24 -4 -41 -38 -26 -53 5 -5 157 -8 358 -7 317 3 349 5
359 20 24 39 2 42 -341 42 -181 1 -338 0 -350 -2z"/>
<path d="M1537 1243 c5 -15 3 -16 -8 -5 -10 9 -78 12 -268 12 -264 0 -301 -3
-301 -25 0 -33 27 -37 288 -38 215 -1 263 1 278 13 16 14 17 13 11 -2 -8 -23
25 -25 47 -2 26 25 16 44 -31 58 -19 6 -22 4 -16 -11z"/>
<path d="M3517 1243 c-4 -3 -7 -16 -7 -29 0 -17 7 -24 28 -27 40 -8 484 -6
522 2 40 8 63 37 40 51 -17 11 -573 14 -583 3z"/>
<path d="M4120 1228 c0 -12 -7 -30 -17 -40 -15 -17 -15 -18 6 -18 28 0 73 44
65 64 -3 9 -17 16 -30 16 -18 0 -24 -5 -24 -22z"/>
<path d="M1688 1103 c-23 -6 -33 -40 -18 -58 17 -20 59 -19 84 3 20 16 20 16
7 -1 -18 -23 -10 -30 22 -18 47 18 43 81 -5 81 -16 0 -17 -3 -8 -22 10 -20 9
-21 -3 -6 -15 18 -53 29 -79 21z"/>
<path d="M2475 1103 c-52 -13 -95 -80 -95 -148 0 -89 46 -148 125 -159 49 -8
75 2 112 43 65 71 67 149 6 221 -26 30 -31 39 -16 32 26 -14 59 -66 68 -109
11 -53 -5 -103 -48 -150 -46 -50 -30 -58 30 -14 48 35 79 103 69 152 -9 48
-37 99 -62 116 -23 15 -148 25 -189 16z"/>
<path d="M3660 1095 c0 -13 -3 -13 -20 -3 -22 14 -55 1 -55 -22 0 -23 33 -36
55 -22 17 10 20 10 20 -3 0 -18 21 -20 38 -3 18 18 14 46 -7 58 -26 13 -31 13
-31 -5z"/>
<path d="M1382 1087 c-17 -20 8 -50 39 -45 18 2 24 9 24 28 0 19 -6 26 -26 28
-14 2 -31 -3 -37 -11z"/>
<path d="M1454 1065 c0 -31 2 -36 20 -33 16 2 22 11 24 36 3 28 0 32 -20 32
-20 0 -23 -5 -24 -35z"/>
<path d="M3265 1089 c-13 -20 5 -59 30 -65 43 -11 73 34 43 64 -15 15 -64 16
-73 1z"/>
<path d="M3358 1075 c2 -14 -1 -32 -8 -40 -11 -13 -8 -15 14 -15 19 0 27 6 32
25 8 33 -1 55 -24 55 -15 0 -18 -5 -14 -25z"/>
<path d="M2195 1060 c13 -14 16 -29 12 -55 -5 -30 -3 -35 13 -35 21 0 40 28
40 59 0 23 -35 51 -64 51 -18 0 -18 -1 -1 -20z"/>
<path d="M2022 1061 c-23 -14 -9 -45 28 -63 46 -23 135 -24 144 -2 20 52 -8
74 -92 74 -37 0 -73 -4 -80 -9z"/>
<path d="M3110 1054 c-17 -19 -99 -68 -105 -62 -3 3 6 11 20 18 53 28 16 50
-85 50 -61 0 -80 -7 -80 -31 0 -57 146 -65 233 -13 26 16 47 35 47 41 0 18
-15 16 -30 -3z"/>
<path d="M3380 300 c-9 -6 -10 -10 -3 -10 6 0 15 5 18 10 8 12 4 12 -15 0z"/>
<path d="M3270 264 c-71 -23 -240 -64 -323 -78 -55 -10 -36 -30 22 -22 68 9
391 110 391 122 0 6 -12 4 -90 -22z"/>
</g>
</svg>
